<?xml version="1.0" standalone="no"?>
<!DOCTYPE svg PUBLIC "-//W3C//DTD SVG 20010904//EN"
 "http://www.w3.org/TR/2001/REC-SVG-20010904/DTD/svg10.dtd">
<svg version="1.0" xmlns="http://www.w3.org/2000/svg"
 width="1086.000000pt" height="1086.000000pt" viewBox="0 0 1086.000000 1086.000000"
 preserveAspectRatio="xMidYMid meet">
<metadata>
Created by potrace 1.14, written by Peter Selinger 2001-2017
</metadata>
<g transform="translate(0.000000,1086.000000) scale(0.100000,-0.100000)"
fill="#000000" stroke="none">
<path d="M5393 10499 c-78 -7 -189 -38 -263 -72 -129 -60 -158 -87 -1644
-1573 -853 -853 -1480 -1488 -1501 -1519 -78 -118 -127 -250 -141 -380 -9 -79
-9 -3011 0 -3091 3 -33 13 -87 21 -120 23 -90 109 -253 168 -319 103 -115
2897 -2902 2949 -2943 57 -44 183 -112 208 -112 9 0 20 -4 25 -9 20 -18 168
-42 257 -42 127 0 198 13 305 53 158 58 95 -1 1666 1568 808 806 1489 1492
1514 1525 55 72 113 193 139 290 18 67 19 136 19 1655 0 1521 -1 1588 -19
1655 -23 84 -72 196 -116 262 -44 65 -2939 2963 -3015 3018 -121 86 -249 137
-382 150 -108 11 -114 11 -190 4z m-45 -1589 l0 -1320 -27 -6 c-111 -23 -223
-70 -311 -132 -40 -27 -414 -393 -968 -946 -497 -496 -905 -903 -907 -905 -6
-5 -872 863 -918 920 -43 54 -90 154 -105 223 -12 58 -13 201 -1 234 5 12 11
34 13 47 3 14 19 55 37 92 30 64 118 154 1483 1521 798 800 1474 1471 1501
1491 52 39 92 60 160 85 22 8 41 15 42 15 0 1 1 -593 1 -1319z m420 1253 c33
-18 480 -459 1518 -1497 1605 -1606 1513 -1507 1555 -1666 36 -139 8 -317 -70
-437 -23 -35 -210 -230 -473 -493 -240 -239 -445 -443 -455 -453 -20 -17 -38
0 -919 881 -495 494 -917 911 -939 927 -22 17 -42 33 -45 37 -3 3 -43 25 -90
48 -77 37 -135 57 -212 74 l-28 6 0 1320 0 1320 55 -21 c30 -11 76 -32 103
-46z m-155 -2842 c57 -13 127 -45 182 -82 22 -15 446 -432 941 -928 l901 -901
-891 -892 c-490 -490 -911 -906 -935 -925 -63 -49 -151 -86 -240 -102 -131
-22 -289 11 -400 85 -33 22 -419 400 -954 936 l-899 898 899 898 c494 494 919
912 945 930 128 87 297 118 451 83z m-3091 -2333 l-422 -423 0 845 0 845 422
-423 423 -422 -423 -422z m6338 418 l0 -844 -212 212 c-116 116 -307 307 -424
423 l-212 213 416 419 c230 230 420 419 425 420 4 0 7 -379 7 -843z m-4813
-1097 c893 -892 955 -949 1073 -1006 54 -27 155 -60 195 -66 l30 -4 1 -1317 2
-1318 -30 6 c-16 3 -60 20 -96 37 -63 29 -150 114 -1530 1493 -831 830 -1478
1484 -1499 1515 -75 113 -107 269 -84 407 7 41 29 103 54 154 41 83 50 94 502
547 253 254 463 461 467 460 4 -1 416 -410 915 -908z m4233 459 c249 -249 468
-475 486 -503 52 -78 84 -174 89 -270 6 -111 -8 -182 -57 -285 l-40 -85 -1471
-1471 c-1038 -1038 -1486 -1479 -1519 -1497 -27 -14 -73 -35 -103 -46 l-55
-21 0 1320 0 1319 43 10 c123 30 228 78 317 144 30 22 459 445 954 939 494
494 900 898 901 898 2 0 207 -204 455 -452z"/>
</g>
</svg>
